<?xml version="1.0" encoding="iso-8859-1"?>
<!-- Generator: Adobe Illustrator 19.0.0, SVG Export Plug-In . SVG Version: 6.00 Build 0)  -->
<svg version="1.1" id="Capa_1" xmlns="http://www.w3.org/2000/svg" xmlns:xlink="http://www.w3.org/1999/xlink" x="0px" y="0px"
	 viewBox="0 0 511.999 511.999" style="enable-background:new 0 0 511.999 511.999;" xml:space="preserve">
<g>
	<g>
		<path d="M495.584,295.016c-20.014-10.876-59.441-23.747-134.544-24.876l-58.094-34.857c-13.62-8.172-29.216-12.492-45.101-12.492
			H138.43c-8.505,0-16.935,2.81-23.739,7.913l-22.624,16.968L15.49,275.518C6.225,278.886,0,287.774,0,297.633v44.883
			c0,17.396,14.152,31.548,31.548,31.548h456.919c12.976,0,23.532-10.557,23.532-23.532v-27.818
			C512,311.131,505.71,300.518,495.584,295.016z M123.691,242.703c4.224-3.168,9.458-4.913,14.739-4.913h30.425l-15.048,20.064
			c-0.182,0.243-0.342,0.495-0.49,0.751l-39.838-8.242L123.691,242.703z M59.717,359.063l6.173-12.347
			c1.455-2.91,4.379-4.717,7.632-4.717h52.328c3.252,0,6.177,1.807,7.632,4.716l6.174,12.348H59.717z M380.362,359.063l6.173-12.347
			c1.455-2.91,4.379-4.717,7.632-4.717h52.328c3.252,0,6.177,1.807,7.632,4.716l6.174,12.348H380.362z M488.468,359.065h-11.397
			l-9.528-19.057C463.531,331.984,455.466,327,446.495,327h-52.328c-8.971,0-17.036,4.984-21.048,13.008l-9.528,19.056H156.426
			l-9.528-19.057c-4.012-8.023-12.077-13.008-21.048-13.008H73.521c-8.971,0-17.036,4.984-21.048,13.008l-9.528,19.056H31.548
			c-9.125,0-16.548-7.423-16.548-16.548v-44.883c0-3.575,2.257-6.797,5.616-8.019l75.625-27.5l85.232,17.634
			c17.029,3.523,34.479,5.31,51.867,5.31h62.74c4.142,0,7.5-3.358,7.5-7.5c0-4.142-3.358-7.5-7.5-7.5h-62.74
			c-16.369,0-32.797-1.682-48.828-4.998l-15.028-3.109l18.12-24.16h70.24c13.167,0,26.094,3.581,37.383,10.354l36.522,21.913h-3.605
			c-4.142,0-7.5,3.358-7.5,7.5c0,4.142,3.358,7.5,7.5,7.5h22.116c83.167,0,122.261,14.496,138.162,23.137
			c5.291,2.875,8.577,8.438,8.577,14.519v27.82H497C497,355.237,493.172,359.065,488.468,359.065z"/>
	</g>
</g>
<g>
	<g>
		<path d="M344.177,327H175.839c-4.142,0-7.5,3.358-7.5,7.5c0,4.142,3.358,7.5,7.5,7.5h168.338c4.142,0,7.5-3.358,7.5-7.5
			C351.677,330.359,348.319,327,344.177,327z"/>
	</g>
</g>
<g>
	<g>
		<path d="M159.807,391.13H39.564c-4.142,0-7.5,3.358-7.5,7.5c0,4.142,3.358,7.5,7.5,7.5h120.242c4.142,0,7.5-3.358,7.5-7.5
			C167.306,394.487,163.949,391.13,159.807,391.13z"/>
	</g>
</g>
<g>
	<g>
		<path d="M480.452,391.13H360.209c-4.142,0-7.5,3.358-7.5,7.5c0,4.142,3.358,7.5,7.5,7.5h120.242c4.142,0,7.5-3.358,7.5-7.5
			C487.951,394.487,484.594,391.13,480.452,391.13z"/>
	</g>
</g>
<g>
	<g>
		<path d="M240.575,192.924c-4.445-4.445-10.354-6.893-16.64-6.893s-12.195,2.447-16.64,6.892c-2.929,2.929-2.928,7.678,0,10.607
			c2.93,2.929,7.677,2.928,10.607,0c1.611-1.612,3.754-2.499,6.033-2.499s4.421,0.887,6.033,2.499
			c1.465,1.464,3.384,2.197,5.304,2.197c1.919,0,3.839-0.732,5.303-2.196C243.504,200.602,243.504,195.854,240.575,192.924z"/>
	</g>
</g>
<g>
	<g>
		<path d="M297.258,136.24c-19.585-19.585-45.625-30.371-73.322-30.371c-27.697,0-53.737,10.786-73.322,30.371
			c-2.929,2.929-2.929,7.678,0,10.606c2.928,2.929,7.677,2.929,10.606,0c16.752-16.752,39.025-25.978,62.716-25.978
			c23.691,0,45.964,9.226,62.716,25.978c1.464,1.464,3.384,2.197,5.303,2.197s3.839-0.732,5.303-2.197
			C300.187,143.917,300.187,139.169,297.258,136.24z"/>
	</g>
</g>
<g>
	<g>
		<path d="M268.916,164.581c-12.015-12.015-27.99-18.632-44.981-18.632c-16.992,0-32.966,6.617-44.981,18.632
			c-2.929,2.929-2.929,7.678,0,10.606c2.929,2.929,7.678,2.929,10.606,0c9.182-9.182,21.389-14.238,34.375-14.238
			c12.985,0,25.192,5.057,34.375,14.238c1.464,1.465,3.384,2.197,5.303,2.197s3.839-0.732,5.303-2.197
			C271.845,172.258,271.845,167.51,268.916,164.581z"/>
	</g>
</g>
<g>
</g>
<g>
</g>
<g>
</g>
<g>
</g>
<g>
</g>
<g>
</g>
<g>
</g>
<g>
</g>
<g>
</g>
<g>
</g>
<g>
</g>
<g>
</g>
<g>
</g>
<g>
</g>
<g>
</g>
</svg>
