<svg id="Слой_1" data-name="Слой 1" xmlns="http://www.w3.org/2000/svg" viewBox="0 0 532.71 459">
    <defs>
        <style>.cls-1{stroke:#000;stroke-miterlimit:10;stroke-width:35px;}</style>
    </defs>
    <path class="cls-1"
          d="M471.35,144.11a9.2,9.2,0,0,0-7.74-4.24H242.39a9.2,9.2,0,0,0-7.74,4.24l-129,202.78a9.21,9.21,0,0,0,0,10l129,202.78a9.22,9.22,0,0,0,7.74,4.24H463.61a9.22,9.22,0,0,0,7.74-4.24l129-202.78a9.21,9.21,0,0,0,0-10ZM458.54,545.43H247.46L124.32,351.87,247.46,158.3H458.54L581.68,351.87Z"
          transform="translate(-86.65 -122.37)"/>
    <path d="M249,287.87a32,32,0,0,0-32,32,37.77,37.77,0,0,0,16.88,31.52l21.36,14.24A21.91,21.91,0,0,1,265,383.87a16,16,0,0,1-32,0v-8H217v8a32,32,0,0,0,64,0,37.75,37.75,0,0,0-16.88-31.52l-21.36-14.24A21.92,21.92,0,0,1,233,319.87a16,16,0,0,1,32,0v8h16v-8a32,32,0,0,0-32-32Z"
          transform="translate(-86.65 -122.37)"/>
    <path d="M289,303.87h24v112h16v-112h24v-16H289Z" transform="translate(-86.65 -122.37)"/>
    <path d="M393,287.87a32,32,0,0,0-32,32v64a32,32,0,0,0,64,0v-64A32,32,0,0,0,393,287.87Zm16,96a16,16,0,0,1-32,0v-64a16,16,0,0,1,32,0Z"
          transform="translate(-86.65 -122.37)"/>
    <path d="M441,295.87v120h16v-56h12a36,36,0,0,0,0-72H449A8,8,0,0,0,441,295.87Zm16,8h12a20,20,0,0,1,0,40H457Z"
          transform="translate(-86.65 -122.37)"/>
</svg>